# xmcd CD database file
#
# Track frame offsets:
#	150
#	21657
#	43088
#	62766
#	85608
#	108255
#	123015
#	150167
#	176102
#	188313
#	214868
#	229567
#
# Disc length: 3287 seconds
#
# Revision: 0
# Processed by: cddbd v1.5.2PL0 Copyright (c) Steve Scherf et al.
# Submitted via: CDex 1.70beta2
#
DISCID=8d0cd50c
DTITLE=Chickenhawks, The - Live From The Gypsy Tea Room
DYEAR=1900
DGENRE=Blues
TTITLE0=Flip, Flop, and Fly
TTITLE1=Crosscut saw
TTITLE2=I Got News For You
TTITLE3=Saturday Night Fish Fry
TTITLE4=Pocky Way
TTITLE5=Turn On Your Lovelight
TTITLE6=Dangerous Mood
TTITLE7=If You Don't Know Me By Now
TTITLE8=Tell Mama
TTITLE9=I'll Take You Back
TTITLE10=Ain't No Sunshine (When She's Gone)
TTITLE11=The Well and the Water
EXTD=
EXTT0=
EXTT1=
EXTT2=
EXTT3=
EXTT4=
EXTT5=
EXTT6=
EXTT7=
EXTT8=
EXTT9=
EXTT10=
EXTT11=
PLAYORDER=
